<?xml version="1.0" encoding="utf-8"?>
<!-- Generator: Adobe Illustrator 23.1.0, SVG Export Plug-In . SVG Version: 6.00 Build 0)  -->
<svg version="1.1" id="Слой_1" xmlns="http://www.w3.org/2000/svg" xmlns:xlink="http://www.w3.org/1999/xlink" x="0px" y="0px"
	 viewBox="0 0 39.8 29.6" style="enable-background:new 0 0 39.8 29.6;" xml:space="preserve">
<style type="text/css">
	.st0{fill:#919191;}
</style>
<g>
	<g>
		<path class="st0" d="M36.9,0h-34C1.3,0,0,1.3,0,2.9v20.9c0,0.4,0.3,0.7,0.7,0.7h1.5V29c0,0.4,0.3,0.7,0.7,0.7h3
			c0.4,0,0.7-0.3,0.7-0.7v-1.6h26.6V29c0,0.4,0.3,0.7,0.7,0.7h3c0.4,0,0.7-0.3,0.7-0.7v-4.5h1.5c0.4,0,0.7-0.3,0.7-0.7V2.9
			C39.8,1.3,38.5,0,36.9,0z M5.2,28.3L5.2,28.3H3.6v-3.8h1.6V28.3z M33.2,26H6.6v-1.5h26.6V26z M36.2,28.3h-1.7v-3.8h1.7V28.3z
			 M38.4,23.1H1.4v-5.7h37.1V23.1z M3.7,16.1v-0.8c0-0.1,0.1-0.2,0.2-0.2h32.1c0.1,0,0.2,0.1,0.2,0.2v0.8H3.7z M38.4,16.1h-0.9v-0.8
			c0-0.9-0.7-1.6-1.6-1.6h-1c0.8-0.5,1.7-1.1,2.4-1.8c0.3-0.3,0.3-0.7,0-1c-4.1-4.1-10.8-4.1-15,0c-0.3,0.3-0.3,0.7,0,1
			c0.7,0.7,1.5,1.3,2.4,1.8h-9.6c0.9-0.5,1.7-1.1,2.4-1.8c0.3-0.3,0.3-0.7,0-1c-2-2-4.6-3.1-7.5-3.1c-2.8,0-5.5,1.1-7.5,3.1
			c-0.3,0.3-0.3,0.7,0,1c0.7,0.7,1.5,1.3,2.4,1.8h-1c-0.9,0-1.6,0.7-1.6,1.6v0.8H1.4V2.9C1.4,2,2,1.4,2.9,1.4h34
			c0.8,0,1.5,0.7,1.5,1.5C38.4,2.9,38.4,16.1,38.4,16.1z M23.8,11.4c3.4-3,8.6-3,12,0C32.4,14.4,27.2,14.4,23.8,11.4z M10,13.6
			c-2.2,0-4.3-0.8-6-2.2c1.7-1.4,3.8-2.2,6-2.2s4.3,0.8,6,2.2C14.3,12.8,12.2,13.6,10,13.6z"/>
	</g>
</g>
</svg>
