<?xml version="1.0" encoding="utf-8"?>
<!-- Generator: Adobe Illustrator 23.1.0, SVG Export Plug-In . SVG Version: 6.00 Build 0)  -->
<svg version="1.1" id="Слой_1" xmlns="http://www.w3.org/2000/svg" xmlns:xlink="http://www.w3.org/1999/xlink" x="0px" y="0px"
	 viewBox="0 0 32.7 33.8" style="enable-background:new 0 0 32.7 33.8;" xml:space="preserve">
<style type="text/css">
	.st0{fill:#919191;}
</style>
<g>
	<path class="st0" d="M26,15v12.9c0,0.5-0.4,0.9-0.9,0.9h-3.6c-0.5,0-0.9-0.4-0.9-0.9v-8.5c0-0.4-0.2-0.8-0.4-1.1
		c-0.3-0.3-0.6-0.4-1.1-0.4h-3h-3c-0.4,0-0.8,0.1-1.1,0.4s-0.4,0.7-0.4,1.1v8.5c0,0.5-0.4,0.9-0.8,0.9H7.3c-0.5,0-0.9-0.4-0.8-0.9
		l0.1-12.9c0-0.5-0.4-0.9-0.8-0.9H5.5c-0.5,0-0.8,0.4-0.8,0.8L4.6,29c0,0.3,0.2,0.7,0.3,1c0,0.1,0.1,0.2,0.2,0.2
		c0.3,0.2,0.6,0.3,1,0.3h5.1c1.3,0,2.3-1.1,2.3-2.4v-8.5h2.6l0,0h0.1h0.1l0,0h2.6v8.5c0,1.3,1.1,2.4,2.4,2.4h4.9
		c0.3,0,0.7-0.2,1-0.3c0.1,0,0.2-0.1,0.2-0.2c0.2-0.3,0.3-0.6,0.3-1V15c0-0.5-0.4-0.8-0.9-0.8l0,0C26.4,14.2,26,14.6,26,15z"/>
	<path class="st0" d="M17,0.3c-0.5-0.4-1.3-0.4-1.9,0L0.7,12.2c-0.4,0.3-0.4,0.9-0.1,1.2l0,0c0.3,0.4,0.9,0.5,1.3,0.1L15.5,2.4
		c0.3-0.3,0.8-0.3,1.1,0l14.2,11.3c0.4,0.3,0.9,0.2,1.3-0.1l0,0c0.3-0.4,0.2-0.9-0.1-1.2L17,0.3z"/>
</g>
</svg>
