<?xml version="1.0" encoding="utf-8"?>
<!-- Generator: Adobe Illustrator 23.1.0, SVG Export Plug-In . SVG Version: 6.00 Build 0)  -->
<svg version="1.1" id="Слой_1" xmlns="http://www.w3.org/2000/svg" xmlns:xlink="http://www.w3.org/1999/xlink" x="0px" y="0px"
	 viewBox="0 0 37.3 35.7" style="enable-background:new 0 0 37.3 35.7;" xml:space="preserve">
<style type="text/css">
	.st0{fill:#919191;}
</style>
<g>
	<g>
		<g>
			<path class="st0" d="M20.9,35.7c-4.6,0-9.5-2.8-14.4-8.5c-4.9-5.7-7.1-10.9-6.4-15.5c0.6-3.9,3-6,4-6.7L5,4.1
				c0.8-0.7,1.7-1,2.5-0.9c1.5,0.2,2.6,1.7,3.4,2.9l0.8,1.3c0.8,1.2,2.8,4.4,0,6.8l-1.1,1c-0.1,0.1-0.3,0.2-0.4,0.3
				c-0.5,0.4-0.9,0.7-1,1.2c-0.1,0.8,0.3,2.4,3,5.5s4.3,3.8,5.1,3.8c0.5,0,0.9-0.3,1.4-0.8c0.1-0.1,0.3-0.3,0.4-0.4l1.1-1
				c2.8-2.4,5.6,0,6.7,1l0,0l1.1,1c1.1,1,2.4,2.2,2.4,3.7c0,0.9-0.4,1.7-1.2,2.4l-1,0.9c-0.8,0.8-3.2,2.9-7.1,2.9
				C21,35.7,20.9,35.7,20.9,35.7z M7.2,5C7,5,6.6,5.1,6.2,5.5l-1,0.9C4.3,7,2.3,8.7,1.9,11.9C1.2,16,3.3,20.8,7.8,26s9,7.9,13.1,7.9
				c3.3,0,5.3-1.7,6-2.5l1-0.9c0.6-0.5,0.6-0.9,0.6-1c0-0.6-0.6-1.4-1.8-2.4l-1.1-1c-2.3-2-3.4-1.8-4.4-1l-1.1,1
				c-0.1,0.1-0.1,0.1-0.2,0.2c-0.4,0.5-1.3,1.4-2.7,1.4c0,0,0,0,0,0c-1.7,0-3.8-1.5-6.4-4.4s-3.7-5.2-3.4-6.9
				c0.2-1.4,1.2-2.1,1.8-2.5c0.1-0.1,0.2-0.1,0.3-0.2l1.1-0.9c1-0.9,1.3-1.9-0.3-4.5L9.4,7.1C8.6,5.8,7.9,5.1,7.3,5
				C7.3,5,7.2,5,7.2,5z"/>
		</g>
	</g>
	<g>
		<path class="st0" d="M20.6,19.6c-0.5,0-0.9,0-1.4-0.1l-1.7-0.3l1.2-1.3c0.4-0.4,1.3-1.5,1.7-2.5c-2.6-1.6-4.1-4.1-4.1-6.8
			C16.3,3.9,21,0,26.8,0s10.6,3.9,10.6,8.6s-4.7,8.6-10.6,8.6c-0.3,0-0.5,0-0.8,0C25.1,18.1,23.3,19.6,20.6,19.6z M26.8,1.9
			c-4.8,0-8.7,3-8.7,6.7c0,2.2,1.4,4.3,3.8,5.6l0.6,0.3l-0.1,0.7c-0.2,0.9-0.7,1.8-1.2,2.5c2-0.3,3.2-1.6,3.7-2.1l0.3-0.4l0.5,0.1
			c0.4,0,0.7,0.1,1.1,0.1c4.8,0,8.7-3,8.7-6.7S31.6,1.9,26.8,1.9z"/>
	</g>
	<g>
		<g>
			<g>
				<path class="st0" d="M22.8,9.6c0.3,0,0.6-0.1,0.9-0.4C23.9,9.1,24,8.7,24,8.4c0-0.3-0.1-0.6-0.4-0.9c-0.2-0.2-0.5-0.4-0.9-0.4
					s-0.6,0.1-0.9,0.4c-0.2,0.2-0.4,0.5-0.4,0.9c0,0.3,0.1,0.6,0.4,0.9C22.2,9.5,22.5,9.6,22.8,9.6z"/>
			</g>
		</g>
		<g>
			<g>
				<path class="st0" d="M26.9,9.6c0.3,0,0.6-0.1,0.9-0.4c0.2-0.2,0.4-0.5,0.4-0.9c0-0.3-0.1-0.6-0.4-0.9c-0.2-0.2-0.5-0.4-0.9-0.4
					c-0.3,0-0.6,0.1-0.9,0.4c-0.2,0.2-0.4,0.5-0.4,0.9c0,0.3,0.1,0.6,0.4,0.9C26.3,9.5,26.6,9.6,26.9,9.6z"/>
			</g>
		</g>
		<g>
			<g>
				<path class="st0" d="M31,9.6c0.3,0,0.6-0.1,0.9-0.4c0.2-0.2,0.4-0.5,0.4-0.9c0-0.3-0.1-0.6-0.4-0.9c-0.2-0.2-0.5-0.4-0.9-0.4
					c-0.3,0-0.6,0.1-0.9,0.4c-0.2,0.2-0.4,0.5-0.4,0.9c0,0.3,0.1,0.6,0.4,0.9C30.4,9.5,30.7,9.6,31,9.6z"/>
			</g>
		</g>
	</g>
</g>
</svg>
