<?xml version="1.0" encoding="utf-8"?>
<!-- Generator: Adobe Illustrator 23.1.0, SVG Export Plug-In . SVG Version: 6.00 Build 0)  -->
<svg version="1.1" id="Слой_1" xmlns="http://www.w3.org/2000/svg" xmlns:xlink="http://www.w3.org/1999/xlink" x="0px" y="0px"
	 viewBox="0 0 40 47.1" style="enable-background:new 0 0 40 47.1;" xml:space="preserve">
<style type="text/css">
	.st0{fill:#919191;}
</style>
<g>
	<g>
		<g>
			<path class="st0" d="M23.3,10.5l-0.6-1.2c-0.2-0.4-0.6-0.6-1-0.6s-0.8,0.2-1,0.6L20,10.5l-1.3,0.2c-0.4,0.1-0.8,0.4-0.9,0.8
				c-0.1,0.4,0,0.9,0.3,1.2l1,0.9L18.8,15c-0.1,0.4,0.1,0.9,0.5,1.1c0.4,0.3,0.8,0.3,1.2,0.1l1.2-0.6l1.2,0.6
				c0.2,0.1,0.4,0.1,0.5,0.1c0.2,0,0.5-0.1,0.7-0.2c0.4-0.3,0.5-0.7,0.5-1.1l-0.2-1.3l1-0.9c0.3-0.3,0.4-0.8,0.3-1.2
				s-0.5-0.7-0.9-0.8L23.3,10.5z M23.3,12.8c-0.3,0.3-0.4,0.6-0.3,1l0.2,1.1l-1-0.5c-0.2-0.1-0.4-0.1-0.5-0.1c-0.2,0-0.4,0-0.5,0.1
				l-1,0.5l0.2-1.1c0.1-0.4-0.1-0.8-0.3-1L19.2,12l1.1-0.2c0.4-0.1,0.7-0.3,0.9-0.6l0.5-1l0.5,1c0.2,0.3,0.5,0.6,0.9,0.6l1.1,0.2
				L23.3,12.8z"/>
		</g>
	</g>
	<path class="st0" d="M40,22v-0.7c0-1.3-1.1-2.4-2.4-2.4H5.8C5.7,17,5.9,11.5,9.3,7.7c2.1-2.4,5.2-3.6,9.2-3.7
		c0.4,1.4,1.7,2.5,3.2,2.5C23.5,6.5,25,5,25,3.2s-1.5-3.3-3.3-3.3c-1.6,0-3,1.2-3.2,2.7c-4.3,0.1-7.8,1.5-10.2,4.1
		c-3.7,4.1-3.9,10-3.8,12.1h-2C1.1,18.9,0,20,0,21.3V22c0,1.2,0.8,2.1,2,2.3v11.2c-1.1,0.2-2,1.2-2,2.3v0.7c0,1.3,1.1,2.4,2.4,2.4h1
		V41v1.5C3.3,43.3,4,44,4.8,44h3.8c0.8,0,1.5-0.7,1.5-1.5V41v-0.1H30V41v1.5c0,0.8,0.7,1.5,1.5,1.5h3.8c0.8,0,1.5-0.7,1.5-1.5V41
		v-0.1h0.8c1.3,0,2.4-1.1,2.4-2.4v-0.7c0-1-0.6-1.8-1.5-2.2V24.2C39.4,23.8,40,23,40,22z M21.6,1.3c1.1,0,2,0.9,2,2s-0.9,2-2,2
		s-2-0.9-2-2C19.7,2.2,20.6,1.3,21.6,1.3z M37.1,35.4L37.1,35.4h-2.6h-1.4h-1.7V24.3h1.7h1.4H37h0.1V35.4z M3.4,24.3L3.4,24.3H6h1.4
		H9v11.1H7.3H5.9H3.4l0,0V24.3z M10.4,24.3h0.8h2.5h1.4H16v11.1h-0.9h-1.4h-2.5h-0.8C10.4,35.4,10.4,24.3,10.4,24.3z M17.4,24.3h0.2
		H19h2.5h1.4H23v11.1h-0.2h-1.4h-2.5h-1.4h-0.2V24.3H17.4z M24.4,24.3h0.9h1.4h2.5H30v11.1h-0.8h-2.5h-1.4h-0.9V24.3z M1.4,22v-0.7
		c0-0.5,0.4-1,1-1h35.2c0.5,0,1,0.4,1,1V22c0,0.5-0.4,1-1,1H2.4C1.8,22.9,1.4,22.5,1.4,22z M8.8,42.5c0,0.1-0.1,0.1-0.1,0.1H4.8
		c-0.1,0-0.1-0.1-0.1-0.1V41c0-0.1,0.1-0.1,0.1-0.1h3.8c0.1,0,0.1,0.1,0.1,0.1L8.8,42.5L8.8,42.5z M35.5,42.5
		C35.5,42.6,35.4,42.6,35.5,42.5l-3.9,0.1c-0.1,0-0.1-0.1-0.1-0.1V41c0-0.1,0.1-0.1,0.1-0.1h3.8c0.1,0,0.1,0.1,0.1,0.1V42.5z
		 M38.6,38.5c0,0.5-0.4,1-1,1h-2.3h-3.8H8.7H4.8H2.4c-0.5,0-1-0.4-1-1v-0.7c0-0.5,0.4-1,1-1h35.2c0.5,0,1,0.4,1,1
		C38.6,37.8,38.6,38.5,38.6,38.5z"/>
</g>
</svg>
