<?xml version="1.0" encoding="utf-8"?>
<!-- Generator: Adobe Illustrator 23.1.0, SVG Export Plug-In . SVG Version: 6.00 Build 0)  -->
<svg version="1.1" id="Слой_1" xmlns="http://www.w3.org/2000/svg" xmlns:xlink="http://www.w3.org/1999/xlink" x="0px" y="0px"
	 viewBox="0 0 35.8 33.3" style="enable-background:new 0 0 35.8 33.3;" xml:space="preserve">
<style type="text/css">
	.st0{fill:#919191;}
</style>
<g>
	<path class="st0" d="M23.5,30.2h8.4v-5h-8.4V30.2z M24.5,26.2h6.4v3h-6.4V26.2z"/>
	<path class="st0" d="M24,20.8c0.1,0.1,0.3,0.2,0.4,0.2c0.2,0,0.3-0.1,0.4-0.2c0.1-0.1,0.2-0.3,0.2-0.4c0-0.2-0.1-0.3-0.2-0.4
		c-0.1-0.1-0.3-0.2-0.4-0.2c-0.2,0-0.3,0.1-0.4,0.2c-0.1,0.1-0.2,0.3-0.2,0.4C23.8,20.6,23.9,20.7,24,20.8z"/>
	<path class="st0" d="M30.8,21c0.2,0,0.3-0.1,0.4-0.2c0.1-0.1,0.2-0.3,0.2-0.4c0-0.2-0.1-0.3-0.2-0.4c-0.1-0.1-0.3-0.2-0.4-0.2
		c-0.2,0-0.3,0.1-0.4,0.2c-0.1,0.1-0.2,0.3-0.2,0.4c0,0.2,0.1,0.3,0.2,0.4C30.5,21,30.6,21,30.8,21z"/>
	<path class="st0" d="M13.3,23.1c0.1,0.1,0.3,0.2,0.4,0.2c0.2,0,0.3-0.1,0.4-0.2c0.1-0.1,0.2-0.3,0.2-0.4s-0.1-0.3-0.2-0.4
		C14,22.1,13.9,22,13.7,22c-0.2,0-0.3,0.1-0.4,0.2c-0.1,0.1-0.2,0.3-0.2,0.4S13.1,23,13.3,23.1z"/>
	<path class="st0" d="M7.3,23.3c0.2,0,0.3-0.1,0.4-0.2c0.1-0.1,0.2-0.3,0.2-0.4s-0.1-0.3-0.2-0.4C7.6,22.1,7.5,22,7.3,22
		c-0.2,0-0.3,0.1-0.4,0.2c-0.1,0.1-0.2,0.3-0.2,0.4s0.1,0.3,0.2,0.4C7,23.2,7.2,23.3,7.3,23.3z"/>
	<path class="st0" d="M13.3,5.6c0.1,0.1,0.3,0.2,0.4,0.2c0.2,0,0.3-0.1,0.4-0.2c0.1-0.1,0.2-0.3,0.2-0.4c0-0.2-0.1-0.3-0.2-0.4
		c-0.1-0.1-0.3-0.2-0.4-0.2c-0.2,0-0.3,0.1-0.4,0.2c-0.1,0.1-0.2,0.3-0.2,0.4C13.1,5.3,13.1,5.5,13.3,5.6z"/>
	<path class="st0" d="M7.8,4.7C7.6,4.6,7.5,4.5,7.3,4.5C7.2,4.5,7,4.6,6.9,4.7C6.8,4.8,6.7,5,6.7,5.1c0,0.2,0.1,0.3,0.2,0.4
		C7,5.7,7.2,5.8,7.3,5.8c0.2,0,0.3-0.1,0.4-0.2c0.1-0.1,0.2-0.3,0.2-0.4C7.9,5,7.9,4.8,7.8,4.7z"/>
	<g>
		<path class="st0" d="M30.7,1.3V0h-4.4v1.3v0.4v3.5l-4.5,5h13.3l-4.4-5V2.2V1.3z M27.6,1.3h1.8v3.3h-1.8V1.3z M32.2,9h-7.4l2.6-3
			h2.2L32.2,9z"/>
		<path class="st0" d="M34.4,17.6L34.4,17.6H21h-1.5h-8.2H9.7H1.3v-7.3h8.4h1.5H21V1.7V1.3V0h-9.7H9.7H0v10.3v7.3v15.7h35.8V17.6
			H34.4z M11.3,1.3h8.4V9h-8.4V1.3z M1.3,1.3h8.4V9H1.3V1.3z M9.7,32.1H1.3V18.9h8.4V32.1z M19.5,32.1h-8.2V18.9h8.2V32.1z
			 M34.4,32.1H21v-8.8h13.4V32.1z M34.4,22H21v-3h13.4V22z"/>
	</g>
</g>
</svg>
