<?xml version="1.0" encoding="utf-8"?>
<!-- Generator: Adobe Illustrator 23.1.0, SVG Export Plug-In . SVG Version: 6.00 Build 0)  -->
<svg version="1.1" id="Слой_1" xmlns="http://www.w3.org/2000/svg" xmlns:xlink="http://www.w3.org/1999/xlink" x="0px" y="0px"
	 viewBox="0 0 39.71 39.55" style="enable-background:new 0 0 39.71 39.55;" xml:space="preserve">
<style type="text/css">
	.st0{fill:#CCCCCC;}
</style>
<g>
	<g>
		<path class="st0" d="M13.4,39.55H2.89C1.3,39.55,0,38.25,0,36.66V26.15c0-1.59,1.3-2.89,2.89-2.89H13.4c1.59,0,2.89,1.3,2.89,2.89
			v10.51C16.29,38.25,14.99,39.55,13.4,39.55z M2.89,25.01c-0.63,0-1.14,0.51-1.14,1.14v10.51c0,0.63,0.51,1.14,1.14,1.14H13.4
			c0.63,0,1.14-0.51,1.14-1.14V26.15c0-0.63-0.51-1.14-1.14-1.14H2.89z"/>
	</g>
	<g>
		<path class="st0" d="M13.4,18.55H2.89C1.3,18.55,0,17.25,0,15.66V5.15c0-1.59,1.3-2.89,2.89-2.89H13.4c1.59,0,2.89,1.3,2.89,2.89
			v10.51C16.29,17.25,14.99,18.55,13.4,18.55z M2.89,4.01c-0.63,0-1.14,0.51-1.14,1.14v10.51c0,0.63,0.51,1.14,1.14,1.14H13.4
			c0.63,0,1.14-0.51,1.14-1.14V5.15c0-0.63-0.51-1.14-1.14-1.14H2.89z"/>
	</g>
	<g>
		<path class="st0" d="M34.4,39.55H23.89c-1.59,0-2.89-1.3-2.89-2.89V26.15c0-1.59,1.3-2.89,2.89-2.89H34.4
			c1.59,0,2.89,1.3,2.89,2.89v10.51C37.29,38.25,35.99,39.55,34.4,39.55z M23.89,25.01c-0.63,0-1.14,0.51-1.14,1.14v10.51
			c0,0.63,0.51,1.14,1.14,1.14H34.4c0.63,0,1.14-0.51,1.14-1.14V26.15c0-0.63-0.51-1.14-1.14-1.14H23.89z"/>
	</g>
	<g>
		<path class="st0" d="M28.73,20.58c-0.83,0-1.66-0.36-2.23-1.04l-6.71-8.09c-1.02-1.23-0.85-3.05,0.38-4.07l8.09-6.71
			c0.59-0.49,1.34-0.73,2.11-0.65c0.77,0.07,1.46,0.44,1.96,1.03l6.71,8.09c0.49,0.59,0.72,1.34,0.65,2.11s-0.44,1.46-1.03,1.96
			l-8.09,6.71C30.04,20.36,29.38,20.58,28.73,20.58z M30.11,1.75c-0.26,0-0.52,0.09-0.73,0.26l-8.09,6.71
			c-0.23,0.19-0.38,0.47-0.41,0.77c-0.03,0.3,0.06,0.6,0.26,0.83l6.71,8.09c0.4,0.48,1.12,0.55,1.6,0.15l8.09-6.71
			c0.23-0.19,0.38-0.47,0.41-0.77c0.03-0.3-0.06-0.6-0.26-0.83l-6.71-8.09c-0.19-0.23-0.47-0.38-0.77-0.41
			C30.18,1.75,30.14,1.75,30.11,1.75z"/>
	</g>
</g>
</svg>
