<?xml version="1.0" encoding="utf-8"?>
<!-- Generator: Adobe Illustrator 23.1.0, SVG Export Plug-In . SVG Version: 6.00 Build 0)  -->
<svg version="1.1" id="Слой_1" xmlns="http://www.w3.org/2000/svg" xmlns:xlink="http://www.w3.org/1999/xlink" x="0px" y="0px"
	 viewBox="0 0 109 22" style="enable-background:new 0 0 109 22;" xml:space="preserve">
<g>
	<path d="M0,21.59V0.35h2.51v18.88h9.38v2.36H0z"/>
	<path d="M34.85,21.97c-1.49,0-2.86-0.28-4.08-0.83c-1.23-0.55-2.28-1.32-3.16-2.31c-0.88-0.99-1.56-2.15-2.04-3.49
		c-0.48-1.34-0.73-2.79-0.73-4.36c0-1.57,0.24-3.02,0.73-4.36c0.48-1.34,1.16-2.5,2.04-3.49c0.88-0.99,1.93-1.76,3.16-2.31
		C31.99,0.28,33.35,0,34.85,0c1.49,0,2.85,0.28,4.08,0.83c1.23,0.55,2.28,1.32,3.16,2.31c0.88,0.99,1.56,2.15,2.04,3.49
		c0.48,1.34,0.73,2.79,0.73,4.36c0,1.57-0.24,3.02-0.73,4.36c-0.48,1.34-1.16,2.5-2.04,3.49c-0.88,0.99-1.93,1.76-3.16,2.31
		C37.7,21.69,36.34,21.97,34.85,21.97z M34.85,19.61c1.13,0,2.15-0.22,3.05-0.65c0.91-0.43,1.68-1.04,2.33-1.81
		c0.64-0.77,1.14-1.69,1.5-2.74c0.35-1.05,0.53-2.19,0.53-3.42c0-1.23-0.17-2.38-0.53-3.44c-0.35-1.06-0.85-1.97-1.5-2.74
		c-0.64-0.76-1.42-1.36-2.33-1.8c-0.91-0.44-1.93-0.65-3.05-0.65c-1.13,0-2.15,0.22-3.07,0.65c-0.92,0.44-1.7,1.04-2.35,1.8
		c-0.64,0.76-1.14,1.68-1.48,2.74s-0.51,2.21-0.51,3.44c0,1.23,0.17,2.37,0.51,3.42s0.84,1.96,1.48,2.74
		c0.64,0.77,1.43,1.38,2.35,1.81C32.69,19.39,33.72,19.61,34.85,19.61z"/>
	<path d="M68.29,22c-1.43,0-2.78-0.27-4.04-0.8c-1.26-0.53-2.36-1.28-3.3-2.25c-0.94-0.97-1.68-2.12-2.22-3.47
		c-0.54-1.35-0.82-2.85-0.82-4.51s0.27-3.16,0.82-4.5c0.54-1.35,1.28-2.5,2.22-3.46c0.94-0.95,2.04-1.7,3.3-2.23
		c1.26-0.53,2.6-0.8,4.04-0.8c1.79,0,3.32,0.37,4.58,1.12c1.26,0.74,2.34,1.7,3.25,2.86l-2,1.31c-0.64-0.87-1.48-1.58-2.5-2.12
		s-2.13-0.81-3.34-0.81c-1.11,0-2.14,0.21-3.08,0.64s-1.77,1.02-2.47,1.78c-0.69,0.76-1.24,1.67-1.63,2.72s-0.59,2.21-0.59,3.49
		c0,1.25,0.2,2.41,0.59,3.47s0.94,1.97,1.63,2.74c0.7,0.76,1.52,1.36,2.47,1.8c0.95,0.44,1.98,0.65,3.08,0.65
		c0.61,0,1.18-0.07,1.73-0.21c0.54-0.14,1.05-0.32,1.51-0.54c0.46-0.22,0.88-0.47,1.26-0.75c0.37-0.28,0.68-0.54,0.92-0.8v-4.33
		h-6.93v-2.36h9.44v7.67c-0.95,1.1-2.09,1.99-3.43,2.66S69.94,22,68.29,22z"/>
	<path d="M98.99,21.97c-1.49,0-2.85-0.28-4.08-0.83c-1.23-0.55-2.28-1.32-3.16-2.31c-0.88-0.99-1.56-2.15-2.04-3.49
		c-0.48-1.34-0.73-2.79-0.73-4.36c0-1.57,0.24-3.02,0.73-4.36c0.48-1.34,1.16-2.5,2.04-3.49c0.88-0.99,1.93-1.76,3.16-2.31
		C96.14,0.28,97.5,0,98.99,0c1.49,0,2.85,0.28,4.08,0.83c1.23,0.55,2.28,1.32,3.16,2.31c0.88,0.99,1.56,2.15,2.04,3.49
		c0.48,1.34,0.73,2.79,0.73,4.36c0,1.57-0.24,3.02-0.73,4.36c-0.48,1.34-1.16,2.5-2.04,3.49c-0.88,0.99-1.93,1.76-3.16,2.31
		C101.84,21.69,100.48,21.97,98.99,21.97z M98.99,19.61c1.13,0,2.15-0.22,3.05-0.65c0.91-0.43,1.68-1.04,2.33-1.81
		c0.64-0.77,1.14-1.69,1.5-2.74c0.35-1.05,0.53-2.19,0.53-3.42c0-1.23-0.17-2.38-0.53-3.44c-0.35-1.06-0.85-1.97-1.5-2.74
		c-0.65-0.76-1.42-1.36-2.33-1.8c-0.91-0.44-1.92-0.65-3.05-0.65c-1.13,0-2.15,0.22-3.07,0.65s-1.7,1.04-2.34,1.8
		c-0.65,0.76-1.14,1.68-1.48,2.74c-0.34,1.06-0.51,2.21-0.51,3.44c0,1.23,0.17,2.37,0.51,3.42c0.34,1.05,0.83,1.96,1.48,2.74
		c0.64,0.77,1.43,1.38,2.34,1.81C96.84,19.39,97.86,19.61,98.99,19.61z"/>
</g>
</svg>
