<?xml version="1.0" encoding="utf-8"?>
<!-- Generator: Adobe Illustrator 23.1.0, SVG Export Plug-In . SVG Version: 6.00 Build 0)  -->
<svg version="1.1" id="Слой_1" xmlns="http://www.w3.org/2000/svg" xmlns:xlink="http://www.w3.org/1999/xlink" x="0px" y="0px"
	 viewBox="0 0 23.29 38.3" style="enable-background:new 0 0 23.29 38.3;" xml:space="preserve">
<style type="text/css">
	.st0{opacity:0.5;}
	.st1{fill:#FFFFFF;}
</style>
<g>
	<path class="st0" d="M1.3,36.94c-1.74-1.78-1.74-4.67,0-6.45l11.08-11.34L1.31,7.82c-1.74-1.78-1.74-4.67,0-6.45
		C2.16,0.48,3.31,0,4.53,0c1.22,0,2.37,0.48,3.22,1.36l14.23,14.56c1.74,1.78,1.74,4.67,0.03,6.42L7.75,36.94
		c-0.86,0.88-2,1.36-3.22,1.36C3.31,38.3,2.16,37.82,1.3,36.94z M18.91,18.93L4.68,4.37c-0.03-0.03-0.26-0.03-0.3,0
		c-0.11,0.12-0.11,0.33,0,0.44l14.01,14.34L4.38,33.49h0c-0.11,0.12-0.11,0.33,0,0.44c0.03,0.03,0.26,0.03,0.29,0l14.25-14.58
		C19.02,19.23,19.02,19.04,18.91,18.93z"/>
	<path class="st1" d="M2.84,31.99l12.55-12.84L2.84,6.31c-0.93-0.95-0.93-2.5,0-3.45s2.44-0.95,3.37,0l14.23,14.56
		c0.93,0.95,0.93,2.5,0,3.45c-0.01,0.01-0.02,0.01-0.02,0.02L6.21,35.44c-0.93,0.95-2.44,0.95-3.37,0
		C1.91,34.48,1.91,32.94,2.84,31.99z"/>
</g>
</svg>
