<?xml version="1.0" encoding="utf-8"?>
<!-- Generator: Adobe Illustrator 23.1.0, SVG Export Plug-In . SVG Version: 6.00 Build 0)  -->
<svg version="1.1" id="Слой_1" xmlns="http://www.w3.org/2000/svg" xmlns:xlink="http://www.w3.org/1999/xlink" x="0px" y="0px"
	 viewBox="0 0 23.29 38.3" style="enable-background:new 0 0 23.29 38.3;" xml:space="preserve">
<style type="text/css">
	.st0{opacity:0.5;}
	.st1{fill:#FFFFFF;}
</style>
<g>
	<path class="st0" d="M18.77,38.3c-1.22,0-2.37-0.48-3.22-1.36L1.28,22.35c-1.71-1.75-1.71-4.64,0.03-6.42L15.54,1.36
		C16.4,0.48,17.54,0,18.76,0c1.22,0,2.36,0.48,3.22,1.36c1.74,1.78,1.74,4.67,0,6.45L10.91,19.15l11.08,11.34
		c1.74,1.78,1.74,4.67,0,6.45C21.13,37.82,19.99,38.3,18.77,38.3z M4.37,19.35l14.25,14.58c0.03,0.03,0.26,0.03,0.29,0
		c0.11-0.12,0.11-0.33,0-0.44h0L4.9,19.15L18.91,4.81c0.11-0.12,0.11-0.33,0-0.44c-0.03-0.03-0.26-0.03-0.3,0L4.38,18.93
		C4.28,19.04,4.27,19.23,4.37,19.35z"/>
	<path class="st1" d="M20.45,31.99L7.9,19.15L20.45,6.31c0.93-0.95,0.93-2.5,0-3.45s-2.44-0.95-3.37,0L2.85,17.43
		c-0.93,0.95-0.93,2.5,0,3.45c0.01,0.01,0.02,0.01,0.02,0.02l14.21,14.54c0.93,0.95,2.44,0.95,3.37,0
		C21.38,34.48,21.38,32.94,20.45,31.99z"/>
</g>
</svg>
